<mxfile host="app.diagrams.net" agent="Mozilla/5.0 (Windows NT 10.0; Win64; x64; rv:127.0) Gecko/20100101 Firefox/127.0" version="24.8.3">
  <diagram name="Page-1" id="5pzBRym21g4uegjxgzaJ">
    <mxGraphModel dx="2759" dy="2115" grid="1" gridSize="10" guides="1" tooltips="1" connect="1" arrows="1" fold="1" page="1" pageScale="1" pageWidth="850" pageHeight="1100" math="0" shadow="0">
      <root>
        <mxCell id="0" />
        <mxCell id="1" parent="0" />
        <mxCell id="h3tnOkEvGrBJg6YftDqR-1" value="AGameObject" style="swimlane;fontStyle=1;align=center;verticalAlign=top;childLayout=stackLayout;horizontal=1;startSize=26;horizontalStack=0;resizeParent=1;resizeParentMax=0;resizeLast=0;collapsible=1;marginBottom=0;whiteSpace=wrap;html=1;" parent="1" vertex="1">
          <mxGeometry x="120" y="90" width="250" height="330" as="geometry" />
        </mxCell>
        <mxCell id="h3tnOkEvGrBJg6YftDqR-2" value="&lt;div&gt;+ Name : string&lt;/div&gt;&lt;div&gt;+ Enabled : bool&lt;/div&gt;&lt;div&gt;- instanceID : unsigned int&lt;/div&gt;&lt;div&gt;- transform : Transform*&lt;/div&gt;&lt;div&gt;- parent : AGameObject*&lt;/div&gt;&lt;div&gt;- childrenList : vector&amp;lt;AGameObject*&amp;gt;&lt;/div&gt;&lt;div&gt;- componentsList : vector&amp;lt;AComponent*&amp;gt;&lt;br&gt;&lt;/div&gt;&lt;div&gt;&lt;br&gt;&lt;/div&gt;" style="text;strokeColor=none;fillColor=none;align=left;verticalAlign=top;spacingLeft=4;spacingRight=4;overflow=hidden;rotatable=0;points=[[0,0.5],[1,0.5]];portConstraint=eastwest;whiteSpace=wrap;html=1;" parent="h3tnOkEvGrBJg6YftDqR-1" vertex="1">
          <mxGeometry y="26" width="250" height="114" as="geometry" />
        </mxCell>
        <mxCell id="h3tnOkEvGrBJg6YftDqR-3" value="" style="line;strokeWidth=1;fillColor=none;align=left;verticalAlign=middle;spacingTop=-1;spacingLeft=3;spacingRight=3;rotatable=0;labelPosition=right;points=[];portConstraint=eastwest;strokeColor=inherit;" parent="h3tnOkEvGrBJg6YftDqR-1" vertex="1">
          <mxGeometry y="140" width="250" height="8" as="geometry" />
        </mxCell>
        <mxCell id="h3tnOkEvGrBJg6YftDqR-4" value="&lt;div&gt;&lt;i&gt;+ Initialize() : void&lt;/i&gt;&lt;/div&gt;&lt;div&gt;&lt;i&gt;+ Update(float) : void&lt;/i&gt;&lt;/div&gt;&lt;div&gt;&lt;i&gt;+ Draw() : void&lt;/i&gt;&lt;/div&gt;&lt;div&gt;&lt;br&gt;&lt;/div&gt;&lt;div&gt;+ AddChild(AGameObject*) : void&lt;/div&gt;&lt;div&gt;+ DetachChild(AGameObject*) : void&lt;/div&gt;&lt;div&gt;&lt;div&gt;+ GetParent() : AGameObject*&lt;/div&gt;&lt;div&gt;&lt;br&gt;&lt;/div&gt;&lt;div&gt;&lt;div&gt;+ AddComponent(AComponent*) : void&lt;/div&gt;&lt;div&gt;+ DetachComponent(AComponent*) : void&lt;/div&gt;&lt;/div&gt;+ GetTransform() : Transform*&lt;/div&gt;&lt;div&gt;&lt;br&gt;&lt;/div&gt;" style="text;strokeColor=none;fillColor=none;align=left;verticalAlign=top;spacingLeft=4;spacingRight=4;overflow=hidden;rotatable=0;points=[[0,0.5],[1,0.5]];portConstraint=eastwest;whiteSpace=wrap;html=1;" parent="h3tnOkEvGrBJg6YftDqR-1" vertex="1">
          <mxGeometry y="148" width="250" height="182" as="geometry" />
        </mxCell>
        <mxCell id="h3tnOkEvGrBJg6YftDqR-5" value="AComponent" style="swimlane;fontStyle=1;align=center;verticalAlign=top;childLayout=stackLayout;horizontal=1;startSize=26;horizontalStack=0;resizeParent=1;resizeParentMax=0;resizeLast=0;collapsible=1;marginBottom=0;whiteSpace=wrap;html=1;" parent="1" vertex="1">
          <mxGeometry x="-260" y="100" width="220" height="220" as="geometry" />
        </mxCell>
        <mxCell id="h3tnOkEvGrBJg6YftDqR-6" value="&lt;div&gt;+ Name : string&lt;/div&gt;&lt;div&gt;+ Enabled : bool&lt;/div&gt;&lt;div&gt;- type : EComponentTypes&lt;/div&gt;&lt;div&gt;- owner : AGameObject*&lt;/div&gt;&lt;div&gt;- transform : Transform*&lt;br&gt;&lt;/div&gt;&lt;div&gt;&lt;br&gt;&lt;/div&gt;&lt;div&gt;&lt;br&gt;&lt;/div&gt;" style="text;strokeColor=none;fillColor=none;align=left;verticalAlign=top;spacingLeft=4;spacingRight=4;overflow=hidden;rotatable=0;points=[[0,0.5],[1,0.5]];portConstraint=eastwest;whiteSpace=wrap;html=1;" parent="h3tnOkEvGrBJg6YftDqR-5" vertex="1">
          <mxGeometry y="26" width="220" height="84" as="geometry" />
        </mxCell>
        <mxCell id="h3tnOkEvGrBJg6YftDqR-7" value="" style="line;strokeWidth=1;fillColor=none;align=left;verticalAlign=middle;spacingTop=-1;spacingLeft=3;spacingRight=3;rotatable=0;labelPosition=right;points=[];portConstraint=eastwest;strokeColor=inherit;" parent="h3tnOkEvGrBJg6YftDqR-5" vertex="1">
          <mxGeometry y="110" width="220" height="8" as="geometry" />
        </mxCell>
        <mxCell id="h3tnOkEvGrBJg6YftDqR-8" value="&lt;div&gt;&lt;i&gt;+ Clone() : void&lt;/i&gt;&lt;/div&gt;&lt;div&gt;&lt;i&gt;+ Perform() : void&lt;/i&gt;&lt;/div&gt;&lt;div&gt;&lt;br&gt;&lt;/div&gt;&lt;div&gt;+ AttachOwner() : void&lt;/div&gt;&lt;div&gt;+ DetachOwner() : void&lt;/div&gt;&lt;div&gt;+ GetOwner() : AGameObject*&lt;br&gt;&lt;br&gt;&lt;br&gt;&lt;/div&gt;" style="text;strokeColor=none;fillColor=none;align=left;verticalAlign=top;spacingLeft=4;spacingRight=4;overflow=hidden;rotatable=0;points=[[0,0.5],[1,0.5]];portConstraint=eastwest;whiteSpace=wrap;html=1;" parent="h3tnOkEvGrBJg6YftDqR-5" vertex="1">
          <mxGeometry y="118" width="220" height="102" as="geometry" />
        </mxCell>
        <mxCell id="h3tnOkEvGrBJg6YftDqR-10" value="" style="endArrow=diamondThin;endFill=0;endSize=24;html=1;rounded=0;entryX=0;entryY=0.5;entryDx=0;entryDy=0;" parent="1" source="h3tnOkEvGrBJg6YftDqR-6" target="h3tnOkEvGrBJg6YftDqR-2" edge="1">
          <mxGeometry width="160" relative="1" as="geometry">
            <mxPoint x="340" y="290" as="sourcePoint" />
            <mxPoint x="500" y="290" as="targetPoint" />
          </mxGeometry>
        </mxCell>
        <mxCell id="h3tnOkEvGrBJg6YftDqR-11" value="Transform" style="swimlane;fontStyle=1;align=center;verticalAlign=top;childLayout=stackLayout;horizontal=1;startSize=26;horizontalStack=0;resizeParent=1;resizeParentMax=0;resizeLast=0;collapsible=1;marginBottom=0;whiteSpace=wrap;html=1;" parent="1" vertex="1">
          <mxGeometry x="-300" y="-430" width="320" height="430" as="geometry" />
        </mxCell>
        <mxCell id="h3tnOkEvGrBJg6YftDqR-12" value="&lt;div&gt;- globalPos : Vector3&lt;/div&gt;&lt;div&gt;- localPos : Vector3&lt;/div&gt;&lt;div&gt;- globalScale : Vector3&lt;/div&gt;&lt;div&gt;- localScale : Vector3&lt;/div&gt;&lt;div&gt;- eulerAngles : Vector3&lt;/div&gt;&lt;div&gt;- localEulerAngles : Vector3&lt;/div&gt;&lt;div&gt;- orientation : Quaternion&lt;/div&gt;&lt;div&gt;&lt;div&gt;- localaRight : Vector3&lt;/div&gt;&lt;div&gt;- localUp : Vector3&lt;/div&gt;&lt;div&gt;- localForward : Vector3&lt;/div&gt;&lt;div&gt;- tMatrix : TMatrix&lt;/div&gt;&lt;/div&gt;" style="text;strokeColor=none;fillColor=none;align=left;verticalAlign=top;spacingLeft=4;spacingRight=4;overflow=hidden;rotatable=0;points=[[0,0.5],[1,0.5]];portConstraint=eastwest;whiteSpace=wrap;html=1;" parent="h3tnOkEvGrBJg6YftDqR-11" vertex="1">
          <mxGeometry y="26" width="320" height="174" as="geometry" />
        </mxCell>
        <mxCell id="h3tnOkEvGrBJg6YftDqR-13" value="" style="line;strokeWidth=1;fillColor=none;align=left;verticalAlign=middle;spacingTop=-1;spacingLeft=3;spacingRight=3;rotatable=0;labelPosition=right;points=[];portConstraint=eastwest;strokeColor=inherit;" parent="h3tnOkEvGrBJg6YftDqR-11" vertex="1">
          <mxGeometry y="200" width="320" height="8" as="geometry" />
        </mxCell>
        <mxCell id="h3tnOkEvGrBJg6YftDqR-14" value="&lt;div&gt;&lt;i&gt;+ Clone() : void&lt;/i&gt;&lt;/div&gt;&lt;div&gt;&lt;br&gt;&lt;/div&gt;&lt;div&gt;+ GetTransformationMatrix() : TMatrix&lt;/div&gt;&lt;div&gt;+ RecalculateChildTransformWithoutParent() : void&lt;/div&gt;&lt;div&gt;+ RecalculateChildTransformWithParent(Transform*) : void&lt;/div&gt;&lt;div&gt;- UpdateTransformationMatrix() : void&lt;br&gt;&lt;/div&gt;&lt;div&gt;&lt;br&gt;&lt;/div&gt;&lt;div&gt;+ Position : Vector3&lt;/div&gt;&lt;div&gt;+ LocalPosition : Vector3&lt;/div&gt;&lt;div&gt;+ LocalScale : Vector3&lt;/div&gt;&lt;div&gt;+ ScaleUniformly(float) : void&lt;/div&gt;&lt;div&gt;+ Rotate(Vector3) : void&lt;/div&gt;&lt;div&gt;- UpdateLocalVectors() : void&lt;br&gt;&lt;/div&gt;&lt;div&gt;&lt;br&gt;&lt;/div&gt;" style="text;strokeColor=none;fillColor=none;align=left;verticalAlign=top;spacingLeft=4;spacingRight=4;overflow=hidden;rotatable=0;points=[[0,0.5],[1,0.5]];portConstraint=eastwest;whiteSpace=wrap;html=1;" parent="h3tnOkEvGrBJg6YftDqR-11" vertex="1">
          <mxGeometry y="208" width="320" height="222" as="geometry" />
        </mxCell>
        <mxCell id="h3tnOkEvGrBJg6YftDqR-16" value="Extends" style="endArrow=block;endSize=16;endFill=0;html=1;rounded=0;exitX=0.464;exitY=1.02;exitDx=0;exitDy=0;entryX=0.5;entryY=0;entryDx=0;entryDy=0;exitPerimeter=0;" parent="1" source="h3tnOkEvGrBJg6YftDqR-14" target="h3tnOkEvGrBJg6YftDqR-5" edge="1">
          <mxGeometry width="160" relative="1" as="geometry">
            <mxPoint x="-400" y="240" as="sourcePoint" />
            <mxPoint x="-240" y="240" as="targetPoint" />
          </mxGeometry>
        </mxCell>
        <mxCell id="h3tnOkEvGrBJg6YftDqR-17" value="ARenderer" style="swimlane;fontStyle=1;align=center;verticalAlign=top;childLayout=stackLayout;horizontal=1;startSize=26;horizontalStack=0;resizeParent=1;resizeParentMax=0;resizeLast=0;collapsible=1;marginBottom=0;whiteSpace=wrap;html=1;" parent="1" vertex="1">
          <mxGeometry x="-620" y="100" width="270" height="228" as="geometry" />
        </mxCell>
        <mxCell id="h3tnOkEvGrBJg6YftDqR-18" value="&lt;div&gt;- shaderType : LPCWSTR&lt;/div&gt;&lt;div&gt;- topologyType : D3D11_PRIMITIVE_TOPOLOGY&lt;/div&gt;&lt;div&gt;- buffersList : vector&amp;lt;AD3D11Object*&amp;gt;&lt;/div&gt;&lt;div&gt;- indexBuffer : IndexBuffer*&lt;/div&gt;&lt;div&gt;- tMatrixBuffer : VertexConstantBuffer*&lt;br&gt;&lt;/div&gt;&lt;div&gt;&lt;br&gt;&lt;/div&gt;&lt;div&gt;&lt;br&gt;&lt;/div&gt;" style="text;strokeColor=none;fillColor=none;align=left;verticalAlign=top;spacingLeft=4;spacingRight=4;overflow=hidden;rotatable=0;points=[[0,0.5],[1,0.5]];portConstraint=eastwest;whiteSpace=wrap;html=1;" parent="h3tnOkEvGrBJg6YftDqR-17" vertex="1">
          <mxGeometry y="26" width="270" height="84" as="geometry" />
        </mxCell>
        <mxCell id="h3tnOkEvGrBJg6YftDqR-19" value="" style="line;strokeWidth=1;fillColor=none;align=left;verticalAlign=middle;spacingTop=-1;spacingLeft=3;spacingRight=3;rotatable=0;labelPosition=right;points=[];portConstraint=eastwest;strokeColor=inherit;" parent="h3tnOkEvGrBJg6YftDqR-17" vertex="1">
          <mxGeometry y="110" width="270" height="8" as="geometry" />
        </mxCell>
        <mxCell id="h3tnOkEvGrBJg6YftDqR-20" value="&lt;div&gt;&lt;i&gt;+ Clone() : void&lt;/i&gt;&lt;/div&gt;&lt;div&gt;&lt;i&gt;+ Release() : void&lt;br&gt;&lt;/i&gt;&lt;/div&gt;&lt;div&gt;&lt;i&gt;+ Perform() : void&lt;/i&gt;&lt;/div&gt;&lt;div&gt;&lt;br&gt;&lt;/div&gt;&lt;div&gt;+ GetShaderType() : LPCWSTR&lt;/div&gt;&lt;div&gt;- InitRenderer() : void&lt;br&gt;&lt;br&gt;&lt;/div&gt;" style="text;strokeColor=none;fillColor=none;align=left;verticalAlign=top;spacingLeft=4;spacingRight=4;overflow=hidden;rotatable=0;points=[[0,0.5],[1,0.5]];portConstraint=eastwest;whiteSpace=wrap;html=1;" parent="h3tnOkEvGrBJg6YftDqR-17" vertex="1">
          <mxGeometry y="118" width="270" height="110" as="geometry" />
        </mxCell>
        <mxCell id="h3tnOkEvGrBJg6YftDqR-21" value="Extends" style="endArrow=block;endSize=16;endFill=0;html=1;rounded=0;exitX=1;exitY=0.5;exitDx=0;exitDy=0;entryX=0;entryY=0.5;entryDx=0;entryDy=0;" parent="1" source="h3tnOkEvGrBJg6YftDqR-18" target="h3tnOkEvGrBJg6YftDqR-6" edge="1">
          <mxGeometry width="160" relative="1" as="geometry">
            <mxPoint x="-410" y="183" as="sourcePoint" />
            <mxPoint x="-250" y="178" as="targetPoint" />
          </mxGeometry>
        </mxCell>
        <mxCell id="h3tnOkEvGrBJg6YftDqR-22" value="MeshRenderer" style="swimlane;fontStyle=1;align=center;verticalAlign=top;childLayout=stackLayout;horizontal=1;startSize=26;horizontalStack=0;resizeParent=1;resizeParentMax=0;resizeLast=0;collapsible=1;marginBottom=0;whiteSpace=wrap;html=1;" parent="1" vertex="1">
          <mxGeometry x="-620" y="400" width="260" height="120" as="geometry" />
        </mxCell>
        <mxCell id="h3tnOkEvGrBJg6YftDqR-23" value="&lt;div&gt;&lt;br&gt;&lt;/div&gt;&lt;div&gt;&lt;br&gt;&lt;/div&gt;&lt;div&gt;&lt;br&gt;&lt;/div&gt;" style="text;strokeColor=none;fillColor=none;align=left;verticalAlign=top;spacingLeft=4;spacingRight=4;overflow=hidden;rotatable=0;points=[[0,0.5],[1,0.5]];portConstraint=eastwest;whiteSpace=wrap;html=1;" parent="h3tnOkEvGrBJg6YftDqR-22" vertex="1">
          <mxGeometry y="26" width="260" height="34" as="geometry" />
        </mxCell>
        <mxCell id="h3tnOkEvGrBJg6YftDqR-24" value="" style="line;strokeWidth=1;fillColor=none;align=left;verticalAlign=middle;spacingTop=-1;spacingLeft=3;spacingRight=3;rotatable=0;labelPosition=right;points=[];portConstraint=eastwest;strokeColor=inherit;" parent="h3tnOkEvGrBJg6YftDqR-22" vertex="1">
          <mxGeometry y="60" width="260" height="8" as="geometry" />
        </mxCell>
        <mxCell id="h3tnOkEvGrBJg6YftDqR-25" value="&lt;div&gt;+ LoadPrimitive(EPrimitiiveMeshTypes) : void&lt;/div&gt;&lt;div&gt;+ LoadNonPrimitive (string) : void&lt;br&gt;&lt;/div&gt;" style="text;strokeColor=none;fillColor=none;align=left;verticalAlign=top;spacingLeft=4;spacingRight=4;overflow=hidden;rotatable=0;points=[[0,0.5],[1,0.5]];portConstraint=eastwest;whiteSpace=wrap;html=1;" parent="h3tnOkEvGrBJg6YftDqR-22" vertex="1">
          <mxGeometry y="68" width="260" height="52" as="geometry" />
        </mxCell>
        <mxCell id="h3tnOkEvGrBJg6YftDqR-26" value="Extends" style="endArrow=block;endSize=16;endFill=0;html=1;rounded=0;exitX=0.5;exitY=0;exitDx=0;exitDy=0;entryX=0.492;entryY=1.019;entryDx=0;entryDy=0;entryPerimeter=0;" parent="1" source="h3tnOkEvGrBJg6YftDqR-22" target="h3tnOkEvGrBJg6YftDqR-20" edge="1">
          <mxGeometry width="160" relative="1" as="geometry">
            <mxPoint x="-124" y="27" as="sourcePoint" />
            <mxPoint x="-125" y="110" as="targetPoint" />
          </mxGeometry>
        </mxCell>
        <mxCell id="h3tnOkEvGrBJg6YftDqR-35" value="CubeObject" style="swimlane;fontStyle=1;align=center;verticalAlign=top;childLayout=stackLayout;horizontal=1;startSize=26;horizontalStack=0;resizeParent=1;resizeParentMax=0;resizeLast=0;collapsible=1;marginBottom=0;whiteSpace=wrap;html=1;" parent="1" vertex="1">
          <mxGeometry x="-120" y="400" width="180" height="100" as="geometry" />
        </mxCell>
        <mxCell id="h3tnOkEvGrBJg6YftDqR-36" value="- renderer : MeshRenderer*" style="text;strokeColor=none;fillColor=none;align=left;verticalAlign=top;spacingLeft=4;spacingRight=4;overflow=hidden;rotatable=0;points=[[0,0.5],[1,0.5]];portConstraint=eastwest;whiteSpace=wrap;html=1;" parent="h3tnOkEvGrBJg6YftDqR-35" vertex="1">
          <mxGeometry y="26" width="180" height="34" as="geometry" />
        </mxCell>
        <mxCell id="h3tnOkEvGrBJg6YftDqR-37" value="" style="line;strokeWidth=1;fillColor=none;align=left;verticalAlign=middle;spacingTop=-1;spacingLeft=3;spacingRight=3;rotatable=0;labelPosition=right;points=[];portConstraint=eastwest;strokeColor=inherit;" parent="h3tnOkEvGrBJg6YftDqR-35" vertex="1">
          <mxGeometry y="60" width="180" height="8" as="geometry" />
        </mxCell>
        <mxCell id="h3tnOkEvGrBJg6YftDqR-38" value="&lt;div&gt;&lt;i&gt;+ Initialize() : void&lt;/i&gt;&lt;/div&gt;&lt;div&gt;&lt;br&gt;&lt;/div&gt;" style="text;strokeColor=none;fillColor=none;align=left;verticalAlign=top;spacingLeft=4;spacingRight=4;overflow=hidden;rotatable=0;points=[[0,0.5],[1,0.5]];portConstraint=eastwest;whiteSpace=wrap;html=1;" parent="h3tnOkEvGrBJg6YftDqR-35" vertex="1">
          <mxGeometry y="68" width="180" height="32" as="geometry" />
        </mxCell>
        <mxCell id="h3tnOkEvGrBJg6YftDqR-40" value="SphereObject" style="swimlane;fontStyle=1;align=center;verticalAlign=top;childLayout=stackLayout;horizontal=1;startSize=26;horizontalStack=0;resizeParent=1;resizeParentMax=0;resizeLast=0;collapsible=1;marginBottom=0;whiteSpace=wrap;html=1;" parent="1" vertex="1">
          <mxGeometry x="40" y="520" width="180" height="100" as="geometry" />
        </mxCell>
        <mxCell id="h3tnOkEvGrBJg6YftDqR-41" value="- renderer : MeshRenderer*" style="text;strokeColor=none;fillColor=none;align=left;verticalAlign=top;spacingLeft=4;spacingRight=4;overflow=hidden;rotatable=0;points=[[0,0.5],[1,0.5]];portConstraint=eastwest;whiteSpace=wrap;html=1;" parent="h3tnOkEvGrBJg6YftDqR-40" vertex="1">
          <mxGeometry y="26" width="180" height="34" as="geometry" />
        </mxCell>
        <mxCell id="h3tnOkEvGrBJg6YftDqR-42" value="" style="line;strokeWidth=1;fillColor=none;align=left;verticalAlign=middle;spacingTop=-1;spacingLeft=3;spacingRight=3;rotatable=0;labelPosition=right;points=[];portConstraint=eastwest;strokeColor=inherit;" parent="h3tnOkEvGrBJg6YftDqR-40" vertex="1">
          <mxGeometry y="60" width="180" height="8" as="geometry" />
        </mxCell>
        <mxCell id="h3tnOkEvGrBJg6YftDqR-43" value="&lt;div&gt;&lt;i&gt;+ Initialize() : void&lt;/i&gt;&lt;/div&gt;&lt;div&gt;&lt;br&gt;&lt;/div&gt;" style="text;strokeColor=none;fillColor=none;align=left;verticalAlign=top;spacingLeft=4;spacingRight=4;overflow=hidden;rotatable=0;points=[[0,0.5],[1,0.5]];portConstraint=eastwest;whiteSpace=wrap;html=1;" parent="h3tnOkEvGrBJg6YftDqR-40" vertex="1">
          <mxGeometry y="68" width="180" height="32" as="geometry" />
        </mxCell>
        <mxCell id="h3tnOkEvGrBJg6YftDqR-44" value="ConeObject" style="swimlane;fontStyle=1;align=center;verticalAlign=top;childLayout=stackLayout;horizontal=1;startSize=26;horizontalStack=0;resizeParent=1;resizeParentMax=0;resizeLast=0;collapsible=1;marginBottom=0;whiteSpace=wrap;html=1;" parent="1" vertex="1">
          <mxGeometry x="260" y="520" width="180" height="100" as="geometry" />
        </mxCell>
        <mxCell id="h3tnOkEvGrBJg6YftDqR-45" value="- renderer : MeshRenderer*" style="text;strokeColor=none;fillColor=none;align=left;verticalAlign=top;spacingLeft=4;spacingRight=4;overflow=hidden;rotatable=0;points=[[0,0.5],[1,0.5]];portConstraint=eastwest;whiteSpace=wrap;html=1;" parent="h3tnOkEvGrBJg6YftDqR-44" vertex="1">
          <mxGeometry y="26" width="180" height="34" as="geometry" />
        </mxCell>
        <mxCell id="h3tnOkEvGrBJg6YftDqR-46" value="" style="line;strokeWidth=1;fillColor=none;align=left;verticalAlign=middle;spacingTop=-1;spacingLeft=3;spacingRight=3;rotatable=0;labelPosition=right;points=[];portConstraint=eastwest;strokeColor=inherit;" parent="h3tnOkEvGrBJg6YftDqR-44" vertex="1">
          <mxGeometry y="60" width="180" height="8" as="geometry" />
        </mxCell>
        <mxCell id="h3tnOkEvGrBJg6YftDqR-47" value="&lt;div&gt;&lt;i&gt;+ Initialize() : void&lt;/i&gt;&lt;/div&gt;&lt;div&gt;&lt;br&gt;&lt;/div&gt;" style="text;strokeColor=none;fillColor=none;align=left;verticalAlign=top;spacingLeft=4;spacingRight=4;overflow=hidden;rotatable=0;points=[[0,0.5],[1,0.5]];portConstraint=eastwest;whiteSpace=wrap;html=1;" parent="h3tnOkEvGrBJg6YftDqR-44" vertex="1">
          <mxGeometry y="68" width="180" height="32" as="geometry" />
        </mxCell>
        <mxCell id="h3tnOkEvGrBJg6YftDqR-48" value="CylinderObject" style="swimlane;fontStyle=1;align=center;verticalAlign=top;childLayout=stackLayout;horizontal=1;startSize=26;horizontalStack=0;resizeParent=1;resizeParentMax=0;resizeLast=0;collapsible=1;marginBottom=0;whiteSpace=wrap;html=1;" parent="1" vertex="1">
          <mxGeometry x="420" y="390" width="180" height="100" as="geometry" />
        </mxCell>
        <mxCell id="h3tnOkEvGrBJg6YftDqR-49" value="- renderer : MeshRenderer*" style="text;strokeColor=none;fillColor=none;align=left;verticalAlign=top;spacingLeft=4;spacingRight=4;overflow=hidden;rotatable=0;points=[[0,0.5],[1,0.5]];portConstraint=eastwest;whiteSpace=wrap;html=1;" parent="h3tnOkEvGrBJg6YftDqR-48" vertex="1">
          <mxGeometry y="26" width="180" height="34" as="geometry" />
        </mxCell>
        <mxCell id="h3tnOkEvGrBJg6YftDqR-50" value="" style="line;strokeWidth=1;fillColor=none;align=left;verticalAlign=middle;spacingTop=-1;spacingLeft=3;spacingRight=3;rotatable=0;labelPosition=right;points=[];portConstraint=eastwest;strokeColor=inherit;" parent="h3tnOkEvGrBJg6YftDqR-48" vertex="1">
          <mxGeometry y="60" width="180" height="8" as="geometry" />
        </mxCell>
        <mxCell id="h3tnOkEvGrBJg6YftDqR-51" value="&lt;div&gt;&lt;i&gt;+ Initialize() : void&lt;/i&gt;&lt;/div&gt;&lt;div&gt;&lt;br&gt;&lt;/div&gt;" style="text;strokeColor=none;fillColor=none;align=left;verticalAlign=top;spacingLeft=4;spacingRight=4;overflow=hidden;rotatable=0;points=[[0,0.5],[1,0.5]];portConstraint=eastwest;whiteSpace=wrap;html=1;" parent="h3tnOkEvGrBJg6YftDqR-48" vertex="1">
          <mxGeometry y="68" width="180" height="32" as="geometry" />
        </mxCell>
        <mxCell id="h3tnOkEvGrBJg6YftDqR-52" value="Extends" style="endArrow=block;endSize=16;endFill=0;html=1;rounded=0;exitX=0.5;exitY=0;exitDx=0;exitDy=0;entryX=0;entryY=0.5;entryDx=0;entryDy=0;" parent="1" source="h3tnOkEvGrBJg6YftDqR-35" target="h3tnOkEvGrBJg6YftDqR-4" edge="1">
          <mxGeometry width="160" relative="1" as="geometry">
            <mxPoint x="-430" y="183" as="sourcePoint" />
            <mxPoint x="-250" y="178" as="targetPoint" />
          </mxGeometry>
        </mxCell>
        <mxCell id="h3tnOkEvGrBJg6YftDqR-53" value="Extends" style="endArrow=block;endSize=16;endFill=0;html=1;rounded=0;exitX=0.5;exitY=0;exitDx=0;exitDy=0;entryX=0.499;entryY=1.022;entryDx=0;entryDy=0;entryPerimeter=0;" parent="1" source="h3tnOkEvGrBJg6YftDqR-40" target="h3tnOkEvGrBJg6YftDqR-4" edge="1">
          <mxGeometry width="160" relative="1" as="geometry">
            <mxPoint x="-80" y="530" as="sourcePoint" />
            <mxPoint x="255" y="435" as="targetPoint" />
          </mxGeometry>
        </mxCell>
        <mxCell id="h3tnOkEvGrBJg6YftDqR-54" value="Extends" style="endArrow=block;endSize=16;endFill=0;html=1;rounded=0;exitX=0.5;exitY=0;exitDx=0;exitDy=0;entryX=0.477;entryY=1.007;entryDx=0;entryDy=0;entryPerimeter=0;" parent="1" source="h3tnOkEvGrBJg6YftDqR-44" target="h3tnOkEvGrBJg6YftDqR-4" edge="1">
          <mxGeometry width="160" relative="1" as="geometry">
            <mxPoint x="140" y="530" as="sourcePoint" />
            <mxPoint x="240" y="410" as="targetPoint" />
          </mxGeometry>
        </mxCell>
        <mxCell id="h3tnOkEvGrBJg6YftDqR-55" value="Extends" style="endArrow=block;endSize=16;endFill=0;html=1;rounded=0;exitX=0.5;exitY=0;exitDx=0;exitDy=0;entryX=1;entryY=0.5;entryDx=0;entryDy=0;" parent="1" source="h3tnOkEvGrBJg6YftDqR-48" target="h3tnOkEvGrBJg6YftDqR-4" edge="1">
          <mxGeometry width="160" relative="1" as="geometry">
            <mxPoint x="360" y="530" as="sourcePoint" />
            <mxPoint x="249" y="431" as="targetPoint" />
          </mxGeometry>
        </mxCell>
        <mxCell id="h3tnOkEvGrBJg6YftDqR-56" value="AMesh" style="swimlane;fontStyle=1;align=center;verticalAlign=top;childLayout=stackLayout;horizontal=1;startSize=26;horizontalStack=0;resizeParent=1;resizeParentMax=0;resizeLast=0;collapsible=1;marginBottom=0;whiteSpace=wrap;html=1;" parent="1" vertex="1">
          <mxGeometry x="-500" y="590" width="230" height="110" as="geometry" />
        </mxCell>
        <mxCell id="h3tnOkEvGrBJg6YftDqR-57" value="&lt;div&gt;&lt;br&gt;&lt;/div&gt;&lt;div&gt;&lt;br&gt;&lt;/div&gt;&lt;div&gt;&lt;br&gt;&lt;/div&gt;" style="text;strokeColor=none;fillColor=none;align=left;verticalAlign=top;spacingLeft=4;spacingRight=4;overflow=hidden;rotatable=0;points=[[0,0.5],[1,0.5]];portConstraint=eastwest;whiteSpace=wrap;html=1;" parent="h3tnOkEvGrBJg6YftDqR-56" vertex="1">
          <mxGeometry y="26" width="230" height="24" as="geometry" />
        </mxCell>
        <mxCell id="h3tnOkEvGrBJg6YftDqR-58" value="" style="line;strokeWidth=1;fillColor=none;align=left;verticalAlign=middle;spacingTop=-1;spacingLeft=3;spacingRight=3;rotatable=0;labelPosition=right;points=[];portConstraint=eastwest;strokeColor=inherit;" parent="h3tnOkEvGrBJg6YftDqR-56" vertex="1">
          <mxGeometry y="50" width="230" height="8" as="geometry" />
        </mxCell>
        <mxCell id="h3tnOkEvGrBJg6YftDqR-59" value="&lt;div&gt;&lt;i&gt;+ CreateVertexBuffer() : VertexBuffer*&lt;/i&gt;&lt;/div&gt;&lt;div&gt;&lt;i&gt;+ CreateIndexBuffer() : IndexBuffer*&lt;/i&gt;&lt;br&gt;&lt;/div&gt;" style="text;strokeColor=none;fillColor=none;align=left;verticalAlign=top;spacingLeft=4;spacingRight=4;overflow=hidden;rotatable=0;points=[[0,0.5],[1,0.5]];portConstraint=eastwest;whiteSpace=wrap;html=1;" parent="h3tnOkEvGrBJg6YftDqR-56" vertex="1">
          <mxGeometry y="58" width="230" height="52" as="geometry" />
        </mxCell>
        <mxCell id="h3tnOkEvGrBJg6YftDqR-60" value="" style="endArrow=diamondThin;endFill=0;endSize=24;html=1;rounded=0;entryX=0.574;entryY=0.948;entryDx=0;entryDy=0;entryPerimeter=0;exitX=0.481;exitY=0.015;exitDx=0;exitDy=0;exitPerimeter=0;" parent="1" source="h3tnOkEvGrBJg6YftDqR-56" target="h3tnOkEvGrBJg6YftDqR-25" edge="1">
          <mxGeometry width="160" relative="1" as="geometry">
            <mxPoint x="-30" y="180" as="sourcePoint" />
            <mxPoint x="130" y="183" as="targetPoint" />
          </mxGeometry>
        </mxCell>
        <mxCell id="h3tnOkEvGrBJg6YftDqR-62" value="SphereMesh" style="swimlane;fontStyle=1;align=center;verticalAlign=top;childLayout=stackLayout;horizontal=1;startSize=26;horizontalStack=0;resizeParent=1;resizeParentMax=0;resizeLast=0;collapsible=1;marginBottom=0;whiteSpace=wrap;html=1;" parent="1" vertex="1">
          <mxGeometry x="-640" y="800" width="230" height="110" as="geometry" />
        </mxCell>
        <mxCell id="h3tnOkEvGrBJg6YftDqR-63" value="&lt;div&gt;&lt;br&gt;&lt;/div&gt;&lt;div&gt;&lt;br&gt;&lt;/div&gt;&lt;div&gt;&lt;br&gt;&lt;/div&gt;" style="text;strokeColor=none;fillColor=none;align=left;verticalAlign=top;spacingLeft=4;spacingRight=4;overflow=hidden;rotatable=0;points=[[0,0.5],[1,0.5]];portConstraint=eastwest;whiteSpace=wrap;html=1;" parent="h3tnOkEvGrBJg6YftDqR-62" vertex="1">
          <mxGeometry y="26" width="230" height="24" as="geometry" />
        </mxCell>
        <mxCell id="h3tnOkEvGrBJg6YftDqR-64" value="" style="line;strokeWidth=1;fillColor=none;align=left;verticalAlign=middle;spacingTop=-1;spacingLeft=3;spacingRight=3;rotatable=0;labelPosition=right;points=[];portConstraint=eastwest;strokeColor=inherit;" parent="h3tnOkEvGrBJg6YftDqR-62" vertex="1">
          <mxGeometry y="50" width="230" height="8" as="geometry" />
        </mxCell>
        <mxCell id="h3tnOkEvGrBJg6YftDqR-65" value="&lt;div&gt;&lt;i&gt;+ CreateVertexBuffer() : VertexBuffer*&lt;/i&gt;&lt;/div&gt;&lt;div&gt;&lt;i&gt;+ CreateIndexBuffer() : IndexBuffer*&lt;/i&gt;&lt;br&gt;&lt;/div&gt;" style="text;strokeColor=none;fillColor=none;align=left;verticalAlign=top;spacingLeft=4;spacingRight=4;overflow=hidden;rotatable=0;points=[[0,0.5],[1,0.5]];portConstraint=eastwest;whiteSpace=wrap;html=1;" parent="h3tnOkEvGrBJg6YftDqR-62" vertex="1">
          <mxGeometry y="58" width="230" height="52" as="geometry" />
        </mxCell>
        <mxCell id="h3tnOkEvGrBJg6YftDqR-66" value="&lt;div&gt;CubeMesh&lt;/div&gt;&lt;div&gt;&lt;br&gt;&lt;/div&gt;" style="swimlane;fontStyle=1;align=center;verticalAlign=top;childLayout=stackLayout;horizontal=1;startSize=26;horizontalStack=0;resizeParent=1;resizeParentMax=0;resizeLast=0;collapsible=1;marginBottom=0;whiteSpace=wrap;html=1;" parent="1" vertex="1">
          <mxGeometry x="-820" y="670" width="230" height="110" as="geometry" />
        </mxCell>
        <mxCell id="h3tnOkEvGrBJg6YftDqR-67" value="&lt;div&gt;&lt;br&gt;&lt;/div&gt;&lt;div&gt;&lt;br&gt;&lt;/div&gt;&lt;div&gt;&lt;br&gt;&lt;/div&gt;" style="text;strokeColor=none;fillColor=none;align=left;verticalAlign=top;spacingLeft=4;spacingRight=4;overflow=hidden;rotatable=0;points=[[0,0.5],[1,0.5]];portConstraint=eastwest;whiteSpace=wrap;html=1;" parent="h3tnOkEvGrBJg6YftDqR-66" vertex="1">
          <mxGeometry y="26" width="230" height="24" as="geometry" />
        </mxCell>
        <mxCell id="h3tnOkEvGrBJg6YftDqR-68" value="" style="line;strokeWidth=1;fillColor=none;align=left;verticalAlign=middle;spacingTop=-1;spacingLeft=3;spacingRight=3;rotatable=0;labelPosition=right;points=[];portConstraint=eastwest;strokeColor=inherit;" parent="h3tnOkEvGrBJg6YftDqR-66" vertex="1">
          <mxGeometry y="50" width="230" height="8" as="geometry" />
        </mxCell>
        <mxCell id="h3tnOkEvGrBJg6YftDqR-69" value="&lt;div&gt;&lt;i&gt;+ CreateVertexBuffer() : VertexBuffer*&lt;/i&gt;&lt;/div&gt;&lt;div&gt;&lt;i&gt;+ CreateIndexBuffer() : IndexBuffer*&lt;/i&gt;&lt;br&gt;&lt;/div&gt;" style="text;strokeColor=none;fillColor=none;align=left;verticalAlign=top;spacingLeft=4;spacingRight=4;overflow=hidden;rotatable=0;points=[[0,0.5],[1,0.5]];portConstraint=eastwest;whiteSpace=wrap;html=1;" parent="h3tnOkEvGrBJg6YftDqR-66" vertex="1">
          <mxGeometry y="58" width="230" height="52" as="geometry" />
        </mxCell>
        <mxCell id="h3tnOkEvGrBJg6YftDqR-70" value="ConeMesh" style="swimlane;fontStyle=1;align=center;verticalAlign=top;childLayout=stackLayout;horizontal=1;startSize=26;horizontalStack=0;resizeParent=1;resizeParentMax=0;resizeLast=0;collapsible=1;marginBottom=0;whiteSpace=wrap;html=1;" parent="1" vertex="1">
          <mxGeometry x="-370" y="800" width="230" height="110" as="geometry" />
        </mxCell>
        <mxCell id="h3tnOkEvGrBJg6YftDqR-71" value="&lt;div&gt;&lt;br&gt;&lt;/div&gt;&lt;div&gt;&lt;br&gt;&lt;/div&gt;&lt;div&gt;&lt;br&gt;&lt;/div&gt;" style="text;strokeColor=none;fillColor=none;align=left;verticalAlign=top;spacingLeft=4;spacingRight=4;overflow=hidden;rotatable=0;points=[[0,0.5],[1,0.5]];portConstraint=eastwest;whiteSpace=wrap;html=1;" parent="h3tnOkEvGrBJg6YftDqR-70" vertex="1">
          <mxGeometry y="26" width="230" height="24" as="geometry" />
        </mxCell>
        <mxCell id="h3tnOkEvGrBJg6YftDqR-72" value="" style="line;strokeWidth=1;fillColor=none;align=left;verticalAlign=middle;spacingTop=-1;spacingLeft=3;spacingRight=3;rotatable=0;labelPosition=right;points=[];portConstraint=eastwest;strokeColor=inherit;" parent="h3tnOkEvGrBJg6YftDqR-70" vertex="1">
          <mxGeometry y="50" width="230" height="8" as="geometry" />
        </mxCell>
        <mxCell id="h3tnOkEvGrBJg6YftDqR-73" value="&lt;div&gt;&lt;i&gt;+ CreateVertexBuffer() : VertexBuffer*&lt;/i&gt;&lt;/div&gt;&lt;div&gt;&lt;i&gt;+ CreateIndexBuffer() : IndexBuffer*&lt;/i&gt;&lt;br&gt;&lt;/div&gt;" style="text;strokeColor=none;fillColor=none;align=left;verticalAlign=top;spacingLeft=4;spacingRight=4;overflow=hidden;rotatable=0;points=[[0,0.5],[1,0.5]];portConstraint=eastwest;whiteSpace=wrap;html=1;" parent="h3tnOkEvGrBJg6YftDqR-70" vertex="1">
          <mxGeometry y="58" width="230" height="52" as="geometry" />
        </mxCell>
        <mxCell id="h3tnOkEvGrBJg6YftDqR-74" value="CylinderMesh" style="swimlane;fontStyle=1;align=center;verticalAlign=top;childLayout=stackLayout;horizontal=1;startSize=26;horizontalStack=0;resizeParent=1;resizeParentMax=0;resizeLast=0;collapsible=1;marginBottom=0;whiteSpace=wrap;html=1;" parent="1" vertex="1">
          <mxGeometry x="-190" y="670" width="230" height="110" as="geometry" />
        </mxCell>
        <mxCell id="h3tnOkEvGrBJg6YftDqR-75" value="&lt;div&gt;&lt;br&gt;&lt;/div&gt;&lt;div&gt;&lt;br&gt;&lt;/div&gt;&lt;div&gt;&lt;br&gt;&lt;/div&gt;" style="text;strokeColor=none;fillColor=none;align=left;verticalAlign=top;spacingLeft=4;spacingRight=4;overflow=hidden;rotatable=0;points=[[0,0.5],[1,0.5]];portConstraint=eastwest;whiteSpace=wrap;html=1;" parent="h3tnOkEvGrBJg6YftDqR-74" vertex="1">
          <mxGeometry y="26" width="230" height="24" as="geometry" />
        </mxCell>
        <mxCell id="h3tnOkEvGrBJg6YftDqR-76" value="" style="line;strokeWidth=1;fillColor=none;align=left;verticalAlign=middle;spacingTop=-1;spacingLeft=3;spacingRight=3;rotatable=0;labelPosition=right;points=[];portConstraint=eastwest;strokeColor=inherit;" parent="h3tnOkEvGrBJg6YftDqR-74" vertex="1">
          <mxGeometry y="50" width="230" height="8" as="geometry" />
        </mxCell>
        <mxCell id="h3tnOkEvGrBJg6YftDqR-77" value="&lt;div&gt;&lt;i&gt;+ CreateVertexBuffer() : VertexBuffer*&lt;/i&gt;&lt;/div&gt;&lt;div&gt;&lt;i&gt;+ CreateIndexBuffer() : IndexBuffer*&lt;/i&gt;&lt;br&gt;&lt;/div&gt;" style="text;strokeColor=none;fillColor=none;align=left;verticalAlign=top;spacingLeft=4;spacingRight=4;overflow=hidden;rotatable=0;points=[[0,0.5],[1,0.5]];portConstraint=eastwest;whiteSpace=wrap;html=1;" parent="h3tnOkEvGrBJg6YftDqR-74" vertex="1">
          <mxGeometry y="58" width="230" height="52" as="geometry" />
        </mxCell>
        <mxCell id="h3tnOkEvGrBJg6YftDqR-78" value="Extends" style="endArrow=block;endSize=16;endFill=0;html=1;rounded=0;entryX=0;entryY=0.5;entryDx=0;entryDy=0;exitX=1.006;exitY=1.006;exitDx=0;exitDy=0;exitPerimeter=0;" parent="1" source="h3tnOkEvGrBJg6YftDqR-67" target="h3tnOkEvGrBJg6YftDqR-59" edge="1">
          <mxGeometry width="160" relative="1" as="geometry">
            <mxPoint x="-550" y="700" as="sourcePoint" />
            <mxPoint x="-350" y="720" as="targetPoint" />
          </mxGeometry>
        </mxCell>
        <mxCell id="h3tnOkEvGrBJg6YftDqR-79" value="Extends" style="endArrow=block;endSize=16;endFill=0;html=1;rounded=0;exitX=0.5;exitY=0;exitDx=0;exitDy=0;entryX=0.46;entryY=1.03;entryDx=0;entryDy=0;entryPerimeter=0;" parent="1" source="h3tnOkEvGrBJg6YftDqR-62" target="h3tnOkEvGrBJg6YftDqR-59" edge="1">
          <mxGeometry width="160" relative="1" as="geometry">
            <mxPoint x="-375" y="870" as="sourcePoint" />
            <mxPoint x="-383" y="690" as="targetPoint" />
          </mxGeometry>
        </mxCell>
        <mxCell id="h3tnOkEvGrBJg6YftDqR-80" value="Extends" style="endArrow=block;endSize=16;endFill=0;html=1;rounded=0;exitX=0.5;exitY=0;exitDx=0;exitDy=0;entryX=0.453;entryY=1.003;entryDx=0;entryDy=0;entryPerimeter=0;" parent="1" source="h3tnOkEvGrBJg6YftDqR-70" target="h3tnOkEvGrBJg6YftDqR-59" edge="1">
          <mxGeometry width="160" relative="1" as="geometry">
            <mxPoint x="-105" y="870" as="sourcePoint" />
            <mxPoint x="-384" y="692" as="targetPoint" />
          </mxGeometry>
        </mxCell>
        <mxCell id="h3tnOkEvGrBJg6YftDqR-81" value="Extends" style="endArrow=block;endSize=16;endFill=0;html=1;rounded=0;entryX=1;entryY=0.5;entryDx=0;entryDy=0;exitX=-0.012;exitY=1.006;exitDx=0;exitDy=0;exitPerimeter=0;" parent="1" source="h3tnOkEvGrBJg6YftDqR-75" target="h3tnOkEvGrBJg6YftDqR-59" edge="1">
          <mxGeometry width="160" relative="1" as="geometry">
            <mxPoint x="-240" y="705" as="sourcePoint" />
            <mxPoint x="-150" y="670" as="targetPoint" />
          </mxGeometry>
        </mxCell>
        <mxCell id="h3tnOkEvGrBJg6YftDqR-82" value="GameObjectManager" style="swimlane;fontStyle=1;align=center;verticalAlign=top;childLayout=stackLayout;horizontal=1;startSize=26;horizontalStack=0;resizeParent=1;resizeParentMax=0;resizeLast=0;collapsible=1;marginBottom=0;whiteSpace=wrap;html=1;" parent="1" vertex="1">
          <mxGeometry x="110" y="-300" width="270" height="300" as="geometry" />
        </mxCell>
        <mxCell id="h3tnOkEvGrBJg6YftDqR-83" value="&lt;div&gt;- sharedInstance : GameObjectManager*&lt;/div&gt;&lt;div&gt;- gameObjList : vector&amp;lt;AGameObject*&amp;gt;&lt;/div&gt;&lt;div&gt;- gameObjMap : map&amp;lt;string,&amp;nbsp; AGameObject*&amp;gt;&lt;/div&gt;&lt;div&gt;- shaderToObjMap : map&amp;lt;LPCWSTR, vector&amp;lt;AGameObject*&amp;gt;&amp;gt;&lt;br&gt;&lt;/div&gt;" style="text;strokeColor=none;fillColor=none;align=left;verticalAlign=top;spacingLeft=4;spacingRight=4;overflow=hidden;rotatable=0;points=[[0,0.5],[1,0.5]];portConstraint=eastwest;whiteSpace=wrap;html=1;" parent="h3tnOkEvGrBJg6YftDqR-82" vertex="1">
          <mxGeometry y="26" width="270" height="84" as="geometry" />
        </mxCell>
        <mxCell id="h3tnOkEvGrBJg6YftDqR-84" value="" style="line;strokeWidth=1;fillColor=none;align=left;verticalAlign=middle;spacingTop=-1;spacingLeft=3;spacingRight=3;rotatable=0;labelPosition=right;points=[];portConstraint=eastwest;strokeColor=inherit;" parent="h3tnOkEvGrBJg6YftDqR-82" vertex="1">
          <mxGeometry y="110" width="270" height="8" as="geometry" />
        </mxCell>
        <mxCell id="h3tnOkEvGrBJg6YftDqR-85" value="&lt;div&gt;&lt;i&gt;+ &lt;/i&gt;GetInstance() : GameObjectManager*&lt;/div&gt;&lt;div&gt;&lt;br&gt;&lt;/div&gt;&lt;div&gt;+ Update(float) : void&lt;/div&gt;&lt;div&gt;+ Draw() : void&lt;/div&gt;&lt;div&gt;&lt;br&gt;&lt;/div&gt;&lt;div&gt;+ AddObject(AGameObject*) : void&lt;/div&gt;&lt;div&gt;+ DeleteObject(AGameObject*) : void&lt;/div&gt;&lt;div&gt;- RemoveObject(AGameObject*) : void&lt;/div&gt;&lt;div&gt;+ BindRendererToShader(ARender*) : void&lt;/div&gt;&lt;div&gt;+ GetAllObjects() :vector&amp;lt;AGameObject*&amp;gt;&lt;br&gt;&lt;/div&gt;&lt;div&gt;&lt;br&gt;&lt;/div&gt;&lt;div&gt;&lt;br&gt;&lt;/div&gt;&lt;div&gt;&lt;br&gt;&lt;/div&gt;" style="text;strokeColor=none;fillColor=none;align=left;verticalAlign=top;spacingLeft=4;spacingRight=4;overflow=hidden;rotatable=0;points=[[0,0.5],[1,0.5]];portConstraint=eastwest;whiteSpace=wrap;html=1;" parent="h3tnOkEvGrBJg6YftDqR-82" vertex="1">
          <mxGeometry y="118" width="270" height="182" as="geometry" />
        </mxCell>
        <mxCell id="h3tnOkEvGrBJg6YftDqR-87" value="Window" style="swimlane;fontStyle=1;align=center;verticalAlign=top;childLayout=stackLayout;horizontal=1;startSize=26;horizontalStack=0;resizeParent=1;resizeParentMax=0;resizeLast=0;collapsible=1;marginBottom=0;whiteSpace=wrap;html=1;" parent="1" vertex="1">
          <mxGeometry x="480" y="-470" width="240" height="330" as="geometry" />
        </mxCell>
        <mxCell id="h3tnOkEvGrBJg6YftDqR-88" value="&lt;div&gt;- width : UINT&lt;/div&gt;&lt;div&gt;- height : UINT&lt;/div&gt;&lt;div&gt;- windowSize : RECT&lt;/div&gt;&lt;div&gt;- hWnd : HWND&lt;/div&gt;&lt;div&gt;- windowClassName : string&lt;/div&gt;&lt;div&gt;- isRunning : bool&lt;br&gt;&lt;/div&gt;" style="text;strokeColor=none;fillColor=none;align=left;verticalAlign=top;spacingLeft=4;spacingRight=4;overflow=hidden;rotatable=0;points=[[0,0.5],[1,0.5]];portConstraint=eastwest;whiteSpace=wrap;html=1;" parent="h3tnOkEvGrBJg6YftDqR-87" vertex="1">
          <mxGeometry y="26" width="240" height="104" as="geometry" />
        </mxCell>
        <mxCell id="h3tnOkEvGrBJg6YftDqR-89" value="" style="line;strokeWidth=1;fillColor=none;align=left;verticalAlign=middle;spacingTop=-1;spacingLeft=3;spacingRight=3;rotatable=0;labelPosition=right;points=[];portConstraint=eastwest;strokeColor=inherit;" parent="h3tnOkEvGrBJg6YftDqR-87" vertex="1">
          <mxGeometry y="130" width="240" height="8" as="geometry" />
        </mxCell>
        <mxCell id="h3tnOkEvGrBJg6YftDqR-90" value="&lt;div&gt;&lt;i&gt;+ Init(int, int, string) : void&lt;/i&gt;&lt;/div&gt;&lt;div&gt;&lt;i&gt;+ Release() : void&lt;/i&gt;&lt;/div&gt;&lt;div&gt;&lt;i&gt;- OnCreate(HWND) : void&lt;/i&gt;&lt;/div&gt;&lt;div&gt;&lt;i&gt;- OnUpdate() : void&lt;/i&gt;&lt;/div&gt;&lt;div&gt;&lt;i&gt;- OnDestroy() : void&lt;/i&gt;&lt;br&gt;&lt;/div&gt;&lt;div&gt;&lt;br&gt;&lt;/div&gt;&lt;div&gt;+ Update() : bool&lt;/div&gt;&lt;div&gt;+ IsRunning() : bool&lt;/div&gt;&lt;div&gt;+ StaticWndProc(HWND, UINT, WPARAM, LPARAM) : void&lt;/div&gt;&lt;div&gt;+ HandleWindowMessages(HWND, UINT, WPARAM, LPARAM) : void&lt;/div&gt;&lt;div&gt;&lt;br&gt;&lt;/div&gt;" style="text;strokeColor=none;fillColor=none;align=left;verticalAlign=top;spacingLeft=4;spacingRight=4;overflow=hidden;rotatable=0;points=[[0,0.5],[1,0.5]];portConstraint=eastwest;whiteSpace=wrap;html=1;" parent="h3tnOkEvGrBJg6YftDqR-87" vertex="1">
          <mxGeometry y="138" width="240" height="192" as="geometry" />
        </mxCell>
        <mxCell id="h3tnOkEvGrBJg6YftDqR-91" value="GameEngineWindow" style="swimlane;fontStyle=1;align=center;verticalAlign=top;childLayout=stackLayout;horizontal=1;startSize=26;horizontalStack=0;resizeParent=1;resizeParentMax=0;resizeLast=0;collapsible=1;marginBottom=0;whiteSpace=wrap;html=1;" parent="1" vertex="1">
          <mxGeometry x="480" y="-60" width="240" height="160" as="geometry" />
        </mxCell>
        <mxCell id="h3tnOkEvGrBJg6YftDqR-92" value="&lt;div&gt;- swapChain : SwapChain*&lt;/div&gt;&lt;div&gt;- fps : int&lt;/div&gt;&lt;div&gt;- currDelta : float&lt;br&gt;&lt;/div&gt;" style="text;strokeColor=none;fillColor=none;align=left;verticalAlign=top;spacingLeft=4;spacingRight=4;overflow=hidden;rotatable=0;points=[[0,0.5],[1,0.5]];portConstraint=eastwest;whiteSpace=wrap;html=1;" parent="h3tnOkEvGrBJg6YftDqR-91" vertex="1">
          <mxGeometry y="26" width="240" height="64" as="geometry" />
        </mxCell>
        <mxCell id="h3tnOkEvGrBJg6YftDqR-93" value="" style="line;strokeWidth=1;fillColor=none;align=left;verticalAlign=middle;spacingTop=-1;spacingLeft=3;spacingRight=3;rotatable=0;labelPosition=right;points=[];portConstraint=eastwest;strokeColor=inherit;" parent="h3tnOkEvGrBJg6YftDqR-91" vertex="1">
          <mxGeometry y="90" width="240" height="8" as="geometry" />
        </mxCell>
        <mxCell id="h3tnOkEvGrBJg6YftDqR-94" value="&lt;div&gt;&lt;i&gt;- OnCreate(HWND) : void&lt;/i&gt;&lt;/div&gt;&lt;div&gt;&lt;i&gt;- OnUpdate() : void&lt;/i&gt;&lt;/div&gt;&lt;div&gt;&lt;i&gt;- OnDestroy() : void&lt;/i&gt;&lt;/div&gt;&lt;div&gt;&lt;br&gt;&lt;/div&gt;" style="text;strokeColor=none;fillColor=none;align=left;verticalAlign=top;spacingLeft=4;spacingRight=4;overflow=hidden;rotatable=0;points=[[0,0.5],[1,0.5]];portConstraint=eastwest;whiteSpace=wrap;html=1;" parent="h3tnOkEvGrBJg6YftDqR-91" vertex="1">
          <mxGeometry y="98" width="240" height="62" as="geometry" />
        </mxCell>
        <mxCell id="h3tnOkEvGrBJg6YftDqR-95" value="Extends" style="endArrow=block;endSize=16;endFill=0;html=1;rounded=0;entryX=0.506;entryY=1.023;entryDx=0;entryDy=0;entryPerimeter=0;" parent="1" source="h3tnOkEvGrBJg6YftDqR-91" target="h3tnOkEvGrBJg6YftDqR-90" edge="1">
          <mxGeometry width="160" relative="1" as="geometry">
            <mxPoint x="-142" y="14" as="sourcePoint" />
            <mxPoint x="-140" y="110" as="targetPoint" />
          </mxGeometry>
        </mxCell>
        <mxCell id="h3tnOkEvGrBJg6YftDqR-96" value="" style="endArrow=diamondThin;endFill=1;endSize=24;html=1;rounded=0;exitX=1;exitY=0.5;exitDx=0;exitDy=0;entryX=0;entryY=0.5;entryDx=0;entryDy=0;" parent="1" source="h3tnOkEvGrBJg6YftDqR-85" target="h3tnOkEvGrBJg6YftDqR-92" edge="1">
          <mxGeometry width="160" relative="1" as="geometry">
            <mxPoint x="440" y="130" as="sourcePoint" />
            <mxPoint x="600" y="130" as="targetPoint" />
          </mxGeometry>
        </mxCell>
        <mxCell id="h3tnOkEvGrBJg6YftDqR-98" value="" style="endArrow=diamondThin;endFill=1;endSize=24;html=1;rounded=0;exitX=0.5;exitY=0;exitDx=0;exitDy=0;entryX=0.497;entryY=1.009;entryDx=0;entryDy=0;entryPerimeter=0;" parent="1" source="h3tnOkEvGrBJg6YftDqR-1" target="h3tnOkEvGrBJg6YftDqR-85" edge="1">
          <mxGeometry width="160" relative="1" as="geometry">
            <mxPoint x="390" y="-81" as="sourcePoint" />
            <mxPoint x="490" y="-52" as="targetPoint" />
          </mxGeometry>
        </mxCell>
        <mxCell id="h3tnOkEvGrBJg6YftDqR-100" value="EditorUIManager" style="swimlane;fontStyle=1;align=center;verticalAlign=top;childLayout=stackLayout;horizontal=1;startSize=26;horizontalStack=0;resizeParent=1;resizeParentMax=0;resizeLast=0;collapsible=1;marginBottom=0;whiteSpace=wrap;html=1;" parent="1" vertex="1">
          <mxGeometry x="800" y="-82" width="220" height="182" as="geometry" />
        </mxCell>
        <mxCell id="h3tnOkEvGrBJg6YftDqR-101" value="&lt;div&gt;- sharedInstance : EditorUIManager*&lt;/div&gt;&lt;div&gt;- uiList : map&amp;lt;string, AUIScreen*&amp;gt;&lt;br&gt;&lt;/div&gt;" style="text;strokeColor=none;fillColor=none;align=left;verticalAlign=top;spacingLeft=4;spacingRight=4;overflow=hidden;rotatable=0;points=[[0,0.5],[1,0.5]];portConstraint=eastwest;whiteSpace=wrap;html=1;" parent="h3tnOkEvGrBJg6YftDqR-100" vertex="1">
          <mxGeometry y="26" width="220" height="44" as="geometry" />
        </mxCell>
        <mxCell id="h3tnOkEvGrBJg6YftDqR-102" value="" style="line;strokeWidth=1;fillColor=none;align=left;verticalAlign=middle;spacingTop=-1;spacingLeft=3;spacingRight=3;rotatable=0;labelPosition=right;points=[];portConstraint=eastwest;strokeColor=inherit;" parent="h3tnOkEvGrBJg6YftDqR-100" vertex="1">
          <mxGeometry y="70" width="220" height="10" as="geometry" />
        </mxCell>
        <mxCell id="h3tnOkEvGrBJg6YftDqR-103" value="&lt;div&gt;&lt;i&gt;+ &lt;/i&gt;get() : EditorUIManager*&lt;/div&gt;&lt;div&gt;+ initialize(HWND) : void&lt;/div&gt;&lt;div&gt;+ destroy() : void&lt;/div&gt;&lt;div&gt;&lt;br&gt;&lt;/div&gt;&lt;div&gt;+ update() : void&lt;/div&gt;&lt;div&gt;+ getUIScreen(string) : AUIScreen*&lt;br&gt;&lt;/div&gt;&lt;div&gt;&lt;br&gt;&lt;/div&gt;&lt;div&gt;&lt;br&gt;&lt;/div&gt;&lt;div&gt;&lt;br&gt;&lt;/div&gt;" style="text;strokeColor=none;fillColor=none;align=left;verticalAlign=top;spacingLeft=4;spacingRight=4;overflow=hidden;rotatable=0;points=[[0,0.5],[1,0.5]];portConstraint=eastwest;whiteSpace=wrap;html=1;" parent="h3tnOkEvGrBJg6YftDqR-100" vertex="1">
          <mxGeometry y="80" width="220" height="102" as="geometry" />
        </mxCell>
        <mxCell id="h3tnOkEvGrBJg6YftDqR-104" value="" style="endArrow=diamondThin;endFill=1;endSize=24;html=1;rounded=0;exitX=0;exitY=0.5;exitDx=0;exitDy=0;entryX=1;entryY=0.5;entryDx=0;entryDy=0;" parent="1" source="h3tnOkEvGrBJg6YftDqR-101" target="h3tnOkEvGrBJg6YftDqR-92" edge="1">
          <mxGeometry width="160" relative="1" as="geometry">
            <mxPoint x="390" y="-81" as="sourcePoint" />
            <mxPoint x="490" y="-52" as="targetPoint" />
          </mxGeometry>
        </mxCell>
        <mxCell id="h3tnOkEvGrBJg6YftDqR-105" value="AUIScreen" style="swimlane;fontStyle=1;align=center;verticalAlign=top;childLayout=stackLayout;horizontal=1;startSize=26;horizontalStack=0;resizeParent=1;resizeParentMax=0;resizeLast=0;collapsible=1;marginBottom=0;whiteSpace=wrap;html=1;" parent="1" vertex="1">
          <mxGeometry x="830" y="210" width="150" height="140" as="geometry" />
        </mxCell>
        <mxCell id="h3tnOkEvGrBJg6YftDqR-106" value="- isActive : bool" style="text;strokeColor=none;fillColor=none;align=left;verticalAlign=top;spacingLeft=4;spacingRight=4;overflow=hidden;rotatable=0;points=[[0,0.5],[1,0.5]];portConstraint=eastwest;whiteSpace=wrap;html=1;" parent="h3tnOkEvGrBJg6YftDqR-105" vertex="1">
          <mxGeometry y="26" width="150" height="34" as="geometry" />
        </mxCell>
        <mxCell id="h3tnOkEvGrBJg6YftDqR-107" value="" style="line;strokeWidth=1;fillColor=none;align=left;verticalAlign=middle;spacingTop=-1;spacingLeft=3;spacingRight=3;rotatable=0;labelPosition=right;points=[];portConstraint=eastwest;strokeColor=inherit;" parent="h3tnOkEvGrBJg6YftDqR-105" vertex="1">
          <mxGeometry y="60" width="150" height="8" as="geometry" />
        </mxCell>
        <mxCell id="h3tnOkEvGrBJg6YftDqR-108" value="&lt;div&gt;+&lt;i&gt; update() : void&lt;/i&gt;&lt;/div&gt;&lt;div&gt;&lt;br&gt;&lt;/div&gt;&lt;div&gt;+ setIsActive(bool) : void&lt;/div&gt;&lt;div&gt;+ getIsActive() : bool&lt;br&gt;&lt;/div&gt;" style="text;strokeColor=none;fillColor=none;align=left;verticalAlign=top;spacingLeft=4;spacingRight=4;overflow=hidden;rotatable=0;points=[[0,0.5],[1,0.5]];portConstraint=eastwest;whiteSpace=wrap;html=1;" parent="h3tnOkEvGrBJg6YftDqR-105" vertex="1">
          <mxGeometry y="68" width="150" height="72" as="geometry" />
        </mxCell>
        <mxCell id="h3tnOkEvGrBJg6YftDqR-109" value="" style="endArrow=diamondThin;endFill=1;endSize=24;html=1;rounded=0;exitX=0.5;exitY=0;exitDx=0;exitDy=0;entryX=0.474;entryY=1.029;entryDx=0;entryDy=0;entryPerimeter=0;" parent="1" source="h3tnOkEvGrBJg6YftDqR-105" target="h3tnOkEvGrBJg6YftDqR-103" edge="1">
          <mxGeometry width="160" relative="1" as="geometry">
            <mxPoint x="820" y="-69" as="sourcePoint" />
            <mxPoint x="740" y="8" as="targetPoint" />
          </mxGeometry>
        </mxCell>
        <mxCell id="h3tnOkEvGrBJg6YftDqR-110" value="HierarchyUI" style="swimlane;fontStyle=1;align=center;verticalAlign=top;childLayout=stackLayout;horizontal=1;startSize=26;horizontalStack=0;resizeParent=1;resizeParentMax=0;resizeLast=0;collapsible=1;marginBottom=0;whiteSpace=wrap;html=1;" parent="1" vertex="1">
          <mxGeometry x="660" y="440" width="220" height="140" as="geometry" />
        </mxCell>
        <mxCell id="h3tnOkEvGrBJg6YftDqR-111" value="- selectedObj : AGameObject*" style="text;strokeColor=none;fillColor=none;align=left;verticalAlign=top;spacingLeft=4;spacingRight=4;overflow=hidden;rotatable=0;points=[[0,0.5],[1,0.5]];portConstraint=eastwest;whiteSpace=wrap;html=1;" parent="h3tnOkEvGrBJg6YftDqR-110" vertex="1">
          <mxGeometry y="26" width="220" height="34" as="geometry" />
        </mxCell>
        <mxCell id="h3tnOkEvGrBJg6YftDqR-112" value="" style="line;strokeWidth=1;fillColor=none;align=left;verticalAlign=middle;spacingTop=-1;spacingLeft=3;spacingRight=3;rotatable=0;labelPosition=right;points=[];portConstraint=eastwest;strokeColor=inherit;" parent="h3tnOkEvGrBJg6YftDqR-110" vertex="1">
          <mxGeometry y="60" width="220" height="8" as="geometry" />
        </mxCell>
        <mxCell id="h3tnOkEvGrBJg6YftDqR-113" value="&lt;div&gt;+&lt;i&gt; update() : void&lt;/i&gt;&lt;/div&gt;&lt;div&gt;&lt;br&gt;&lt;/div&gt;- PrintObject(AGameObject*) : void" style="text;strokeColor=none;fillColor=none;align=left;verticalAlign=top;spacingLeft=4;spacingRight=4;overflow=hidden;rotatable=0;points=[[0,0.5],[1,0.5]];portConstraint=eastwest;whiteSpace=wrap;html=1;" parent="h3tnOkEvGrBJg6YftDqR-110" vertex="1">
          <mxGeometry y="68" width="220" height="72" as="geometry" />
        </mxCell>
        <mxCell id="h3tnOkEvGrBJg6YftDqR-114" value="InspectorUI" style="swimlane;fontStyle=1;align=center;verticalAlign=top;childLayout=stackLayout;horizontal=1;startSize=26;horizontalStack=0;resizeParent=1;resizeParentMax=0;resizeLast=0;collapsible=1;marginBottom=0;whiteSpace=wrap;html=1;" parent="1" vertex="1">
          <mxGeometry x="960" y="440" width="150" height="150" as="geometry" />
        </mxCell>
        <mxCell id="h3tnOkEvGrBJg6YftDqR-115" value="&lt;div&gt;- hierarchy : HierarchyUI*&lt;/div&gt;&lt;div&gt;- pos : float[]&lt;/div&gt;&lt;div&gt;- rot : float[]&lt;/div&gt;&lt;div&gt;- scale : float[]&lt;br&gt;&lt;/div&gt;" style="text;strokeColor=none;fillColor=none;align=left;verticalAlign=top;spacingLeft=4;spacingRight=4;overflow=hidden;rotatable=0;points=[[0,0.5],[1,0.5]];portConstraint=eastwest;whiteSpace=wrap;html=1;" parent="h3tnOkEvGrBJg6YftDqR-114" vertex="1">
          <mxGeometry y="26" width="150" height="74" as="geometry" />
        </mxCell>
        <mxCell id="h3tnOkEvGrBJg6YftDqR-116" value="" style="line;strokeWidth=1;fillColor=none;align=left;verticalAlign=middle;spacingTop=-1;spacingLeft=3;spacingRight=3;rotatable=0;labelPosition=right;points=[];portConstraint=eastwest;strokeColor=inherit;" parent="h3tnOkEvGrBJg6YftDqR-114" vertex="1">
          <mxGeometry y="100" width="150" height="8" as="geometry" />
        </mxCell>
        <mxCell id="h3tnOkEvGrBJg6YftDqR-117" value="&lt;div&gt;+&lt;i&gt; update() : void&lt;/i&gt;&lt;/div&gt;&lt;div&gt;&lt;br&gt;&lt;/div&gt;" style="text;strokeColor=none;fillColor=none;align=left;verticalAlign=top;spacingLeft=4;spacingRight=4;overflow=hidden;rotatable=0;points=[[0,0.5],[1,0.5]];portConstraint=eastwest;whiteSpace=wrap;html=1;" parent="h3tnOkEvGrBJg6YftDqR-114" vertex="1">
          <mxGeometry y="108" width="150" height="42" as="geometry" />
        </mxCell>
        <mxCell id="h3tnOkEvGrBJg6YftDqR-119" value="Extends" style="endArrow=block;endSize=16;endFill=0;html=1;rounded=0;exitX=0.5;exitY=0;exitDx=0;exitDy=0;entryX=0.5;entryY=1;entryDx=0;entryDy=0;" parent="1" source="h3tnOkEvGrBJg6YftDqR-110" target="h3tnOkEvGrBJg6YftDqR-105" edge="1">
          <mxGeometry width="160" relative="1" as="geometry">
            <mxPoint x="520" y="400" as="sourcePoint" />
            <mxPoint x="380" y="339" as="targetPoint" />
          </mxGeometry>
        </mxCell>
        <mxCell id="h3tnOkEvGrBJg6YftDqR-120" value="Extends" style="endArrow=block;endSize=16;endFill=0;html=1;rounded=0;exitX=0.5;exitY=0;exitDx=0;exitDy=0;entryX=0.495;entryY=0.999;entryDx=0;entryDy=0;entryPerimeter=0;" parent="1" source="h3tnOkEvGrBJg6YftDqR-114" target="h3tnOkEvGrBJg6YftDqR-108" edge="1">
          <mxGeometry width="160" relative="1" as="geometry">
            <mxPoint x="780" y="350" as="sourcePoint" />
            <mxPoint x="1120" y="340" as="targetPoint" />
          </mxGeometry>
        </mxCell>
        <mxCell id="xdk1VI866ZNDbEQ8haXJ-1" value="&lt;b style=&quot;font-size: 16px;&quot;&gt;START HERE&lt;br&gt;&lt;/b&gt;" style="shape=note2;boundedLbl=1;whiteSpace=wrap;html=1;size=25;verticalAlign=top;align=center;" vertex="1" parent="1">
          <mxGeometry x="540" y="-590" width="120" height="60" as="geometry" />
        </mxCell>
        <mxCell id="xdk1VI866ZNDbEQ8haXJ-2" value="" style="endArrow=none;dashed=1;html=1;rounded=0;entryX=0.5;entryY=1;entryDx=0;entryDy=0;entryPerimeter=0;exitX=0.5;exitY=0;exitDx=0;exitDy=0;strokeWidth=3;" edge="1" parent="1" source="h3tnOkEvGrBJg6YftDqR-87" target="xdk1VI866ZNDbEQ8haXJ-1">
          <mxGeometry width="50" height="50" relative="1" as="geometry">
            <mxPoint x="860" y="-190" as="sourcePoint" />
            <mxPoint x="910" y="-240" as="targetPoint" />
          </mxGeometry>
        </mxCell>
      </root>
    </mxGraphModel>
  </diagram>
</mxfile>
